<?xml version="1.0" standalone="no"?>
<!DOCTYPE svg PUBLIC "-//W3C//DTD SVG 20010904//EN"
 "http://www.w3.org/TR/2001/REC-SVG-20010904/DTD/svg10.dtd">
<svg version="1.0" xmlns="http://www.w3.org/2000/svg"
 width="512.000000pt" height="512.000000pt" viewBox="0 0 512.000000 512.000000"
 preserveAspectRatio="xMidYMid meet">
<metadata>
Created by potrace 1.11, written by Peter Selinger 2001-2013
</metadata>
<g transform="translate(0.000000,512.000000) scale(0.100000,-0.100000)"
fill="#000000" stroke="none">
<path d="M2274 5079 c-45 -9 -80 -36 -100 -77 -15 -32 -18 -68 -19 -247 -1
-115 3 -223 8 -240 8 -29 9 -102 2 -175 -2 -19 -6 -75 -9 -125 -4 -49 -14
-124 -22 -165 -9 -41 -18 -95 -21 -120 -2 -25 -8 -63 -12 -86 -4 -22 -9 -135
-10 -250 -1 -115 -6 -225 -11 -244 -13 -47 -48 -84 -147 -152 -68 -47 -175
-126 -193 -140 -8 -7 -32 -26 -55 -42 -67 -47 -105 -88 -133 -141 l-27 -50 0
-1250 0 -1250 32 -65 c41 -84 87 -137 157 -179 102 -61 100 -61 878 -61 766 1
758 0 854 56 90 53 170 165 192 269 5 22 8 580 7 1240 -1 1155 -1 1202 -20
1250 -27 72 -68 120 -160 188 -44 33 -79 63 -78 67 1 4 -3 7 -10 7 -14 0 -233
158 -260 188 -42 45 -45 64 -46 280 -1 116 -3 219 -5 230 -2 11 -7 47 -11 80
-3 33 -15 105 -25 160 -10 55 -22 138 -25 185 -4 47 -8 99 -10 117 -8 67 -7
130 3 173 5 25 9 140 8 255 -1 197 -2 212 -23 245 -45 72 -52 74 -384 75 -163
0 -309 -2 -325 -6z m196 -52 c0 -2 -8 -19 -17 -38 -12 -25 -17 -58 -16 -121 1
-60 -3 -88 -10 -89 -17 -2 -68 -2 -97 0 -25 1 -26 3 -27 78 -2 81 4 102 45
146 21 22 34 27 74 27 26 0 48 -2 48 -3z m-29 -324 c1 -22 1 -151 0 -175 -1
-15 -11 -18 -69 -18 l-68 0 0 105 1 105 68 0 c57 0 67 -3 68 -17z m-5 -338
c-10 -116 -42 -287 -86 -454 -17 -62 -30 -115 -30 -116 0 -1 -16 -2 -35 -2
-41 0 -40 -4 -21 127 8 52 17 131 21 175 4 44 8 82 10 85 1 3 6 46 10 95 8
113 14 148 25 155 4 3 32 5 60 5 l52 0 -6 -70z m523 -832 c1 -87 4 -174 8
-193 14 -83 59 -133 224 -251 275 -197 291 -210 313 -259 19 -42 23 -67 24
-189 l1 -141 -539 0 c-297 0 -722 0 -945 0 -223 0 -409 0 -414 0 -6 0 -9 61
-7 149 3 201 -2 192 265 388 232 170 252 187 281 247 18 39 20 62 21 225 l0
181 383 0 384 0 1 -157z m579 -3005 c-1 -173 -14 -229 -68 -298 -34 -43 -96
-84 -152 -101 -39 -12 -1379 -16 -1448 -4 -92 15 -177 82 -220 172 -21 43 -23
64 -26 216 l-2 167 958 0 958 0 0 -152z"/>
</g>
</svg>
